<?xml version="1.0" encoding="utf-8"?>
<svg width="495px" height="320px" viewBox="0 0 495 320" xmlns="http://www.w3.org/2000/svg" xmlns:bx="https://boxy-svg.com">
  <defs>
    <style id="bx-google-fonts">@import url(https://fonts.googleapis.com/css?family=Roboto:100,100italic,300,300italic,400,400italic,500,500italic,700,700italic,900,900italic);</style>
  </defs>
  <g transform="matrix(1.373195, 0, 0, 1.373195, 131.686356, -34.130131)">
    <rect x="34.226" y="39.847" width="163.006" height="188.906" style="stroke: rgb(0, 0, 0); vector-effect: non-scaling-stroke; fill: rgb(255, 255, 255);"/>
    <text x="116.825" y="60.733" style="font-family: Times, serif; font-size: 14px; text-anchor: middle; white-space: pre;"><tspan style="font-weight: bold; font-size: 14px; word-spacing: 0px;">struct</tspan><tspan style="font-size: 14px; word-spacing: 0px;"> object</tspan></text>
    <g transform="matrix(1, 0, 0, 1, 0.470524, 31.047997)">
      <rect x="48.196" y="144.393" width="134.748" height="39.12" style="stroke: rgb(0, 0, 0); fill: rgb(128, 247, 251);"/>
      <text x="115.58" y="168.614" style="font-family: Times, serif; font-size: 14px; text-anchor: middle; white-space: pre;"><tspan style="font-weight: bold; font-size: 14px; word-spacing: 0px;">struct</tspan><tspan style="font-size: 14px; word-spacing: 0px;"> list_head </tspan><tspan style="font-style: italic; font-size: 14px; word-spacing: 0px;">node</tspan></text>
    </g>
    <g transform="matrix(1, 0, 0, 1, 1.091484, 0)">
      <rect x="46.952" y="77.019" width="134.748" height="39.12" style="fill: rgb(216, 216, 216); stroke: rgb(0, 0, 0);"/>
      <text x="114.336" y="101.24" style="font-family: Times, serif; font-size: 14px; text-anchor: middle; white-space: pre;"><tspan style="font-size: 14px; word-spacing: 0px;">int </tspan><tspan style="font-style: italic; font-size: 14px; word-spacing: 0px;">id</tspan></text>
    </g>
    <g transform="matrix(1, 0, 0, 1, 1.711974, 45.330025)">
      <rect x="46.952" y="77.019" width="134.748" height="39.12" style="fill: rgb(216, 216, 216); stroke: rgb(0, 0, 0);"/>
      <text x="114.336" y="101.24" style="font-family: Times, serif; font-size: 14px; text-anchor: middle; white-space: pre;"><tspan>char </tspan><tspan style="font-style: italic;">name[16]</tspan></text>
    </g>
  </g>
  <g transform="matrix(1.373195, 0, 0, 1.373195, 131.686356, -34.130131)">
    <path d="M 23.879 175.327 L 43.691 175.338" style="fill: none; stroke: black; stroke-width: 2;" transform="matrix(NaN, NaN, NaN, NaN, NaN, NaN)" bx:origin="0.294 -Infinity"/>
    <path d="M 180.005 -55.206 L 185.293 -42.103 L 174.717 -42.103 L 180.005 -55.206 Z" transform="matrix(0, -0.999997, -1, 0, -4.764327, 355.384368)" bx:shape="triangle 174.717 -55.206 10.576 13.103 0.5 0 1@58d4fef9"/>
  </g>
  <path d="M 41.673 175.441 Z" style="stroke: black; fill: none;"/>
  <text x="135.646" y="213.045" style="font-size: 22px; white-space: pre;">ptr</text>
  <g transform="matrix(1.373195, 0, 0, 1.373195, 109.705322, -219.817474)">
    <path d="M 23.879 175.327 L 43.691 175.338" style="fill: none; stroke: black; stroke-width: 2;" transform="matrix(NaN, NaN, NaN, NaN, NaN, NaN)" bx:origin="0.294 -Infinity"/>
    <path d="M 180.005 -55.206 L 185.293 -42.103 L 174.717 -42.103 L 180.005 -55.206 Z" transform="matrix(0, -0.999997, -1, 0, -4.764327, 355.384368)" bx:shape="triangle 174.717 -55.206 10.576 13.103 0.5 0 1@58d4fef9"/>
  </g>
  <text x="4.344" y="26.715" style="font-size: 22px; font-style: italic; white-space: pre;">struct object*</text>
  <path d="M 335.995 244.231 L 373.884 244.082" style="fill: none; stroke-width: 2; stroke: rgb(255, 0, 0);" bx:origin="0 1.006"/>
  <g transform="matrix(0, -1.373195, 1.373195, 0, 118.45256, 386.625122)">
    <g transform="matrix(1, 0, 0, 1, 52.59333, -2.247578)">
      <path d="M 13.413 175.458 L 43.691 175.338" style="fill: none; stroke: black; stroke-width: 2;" transform="matrix(NaN, NaN, NaN, NaN, NaN, NaN)" bx:origin="0.294 -Infinity"/>
      <path d="M -169.428 55.206 L -164.14 68.309 L -174.716 68.309 L -169.428 55.206 Z" transform="matrix(0, -1, -1, 0, 105.647691, 5.951431)" bx:shape="triangle -174.716 55.206 10.576 13.103 0.5 0 1@af94cc5f"/>
    </g>
  </g>
  <text x="195.042" y="237.243" style="font-size: 16px; white-space: pre;" transform="matrix(1.373195, 0, 0, 1.373193, 47.651505, -15.015981)">member</text>
  <path d="M 240.905 55.798 L 350.251 56.156" style="fill: none; stroke-width: 2; stroke: rgb(255, 0, 0);" bx:origin="0 -0.002"/>
  <g transform="matrix(1.165094, -0.739864, 0.756893, 1.19191, 60.331787, -113.147095)">
    <path d="M -18.744 173.301 C -13.702 176.369 12.541 188.551 38.291 177.712" style="fill: none; stroke: black; stroke-width: 2;" transform="matrix(NaN, NaN, NaN, NaN, NaN, NaN)" bx:origin="0.294 -Infinity"/>
    <path d="M -169.847 55.07 L -164.546 68.14 L -175.148 68.14 L -169.847 55.07 Z" transform="matrix(-0.332506, -0.943101, -0.947763, 0.319283, 45.670417, -3.616021)" bx:shape="triangle -175.148 55.07 10.602 13.07 0.5 0 1@fcdab737"/>
  </g>
  <text x="331.093" y="125.054" style="font-size: 20.3px; white-space: pre;" transform="matrix(1.084229, 0, 0, 1.084228, -232.540894, -24.546629)">type</text>
  <path d="M 385.26 206.616 L 418.935 206.64" style="fill: none; stroke: rgb(138, 138, 138);"/>
  <path d="M 383.778 133.522 L 417.453 133.546" style="fill: none; stroke: rgb(138, 138, 138);"/>
  <path d="M 384.177 71.671 L 417.852 71.695" style="fill: none; stroke: rgb(138, 138, 138);"/>
  <path d="M 402.248 20.705 L 418.935 20.717" style="fill: none; stroke: rgb(138, 138, 138);"/>
  <text x="419.496" y="21.282" style="fill: rgb(138, 138, 138); font-size: 16px; white-space: pre;">addr</text>
  <text x="418.487" y="72.284" style="fill: rgb(138, 138, 138); font-size: 16px; white-space: pre;">addr+0</text>
  <text x="418.487" y="134.5" style="fill: rgb(138, 138, 138); font-size: 16px; white-space: pre;">addr+4</text>
  <text x="418.492" y="206.949" style="fill: rgb(138, 138, 138); font-size: 16px; white-space: pre;">addr+20</text>
</svg>