<?xml version="1.0" encoding="UTF-8" standalone="no"?>
<!DOCTYPE svg PUBLIC "-//W3C//DTD SVG 1.1//EN"
 "http://www.w3.org/Graphics/SVG/1.1/DTD/svg11.dtd">
<!-- Generated by graphviz version 2.38.0 (20140413.2041)
 -->
<!-- Title: hashtable Pages: 1 -->
<svg width="572pt" height="119pt"
 viewBox="0.00 0.00 571.88 119.00" xmlns="http://www.w3.org/2000/svg" xmlns:xlink="http://www.w3.org/1999/xlink">
<g id="graph0" class="graph" transform="scale(1 1) rotate(0) translate(4 115)">
<title>hashtable</title>
<polygon fill="none" stroke="none" points="-4,4 -4,-115 567.88,-115 567.88,4 -4,4"/>
<!-- htable -->
<g id="node1" class="node"><title>htable</title>
<polygon fill="none" stroke="black" points="0,-0.5 0,-110.5 101.941,-110.5 101.941,-0.5 0,-0.5"/>
<text text-anchor="middle" x="50.9707" y="-95.3" font-family="Times,serif" font-size="14.00"> </text>
<polyline fill="none" stroke="black" points="0,-88.5 101.941,-88.5 "/>
<text text-anchor="middle" x="50.9707" y="-73.3" font-family="Times,serif" font-size="14.00">hlish_head.first</text>
<polyline fill="none" stroke="black" points="0,-66.5 101.941,-66.5 "/>
<text text-anchor="middle" x="50.9707" y="-51.3" font-family="Times,serif" font-size="14.00"> </text>
<polyline fill="none" stroke="black" points="0,-44.5 101.941,-44.5 "/>
<text text-anchor="middle" x="50.9707" y="-29.3" font-family="Times,serif" font-size="14.00"> </text>
<polyline fill="none" stroke="black" points="0,-22.5 101.941,-22.5 "/>
<text text-anchor="middle" x="50.9707" y="-7.3" font-family="Times,serif" font-size="14.00"> </text>
</g>
<!-- node0 -->
<g id="node2" class="node"><title>node0</title>
<polygon fill="none" stroke="black" points="137.941,-66.5 137.941,-110.5 225.921,-110.5 225.921,-66.5 137.941,-66.5"/>
<text text-anchor="middle" x="181.931" y="-95.3" font-family="Times,serif" font-size="14.00">hlist_node</text>
<polyline fill="none" stroke="black" points="137.941,-88.5 225.921,-88.5 "/>
<text text-anchor="middle" x="161.879" y="-73.3" font-family="Times,serif" font-size="14.00">pprev</text>
<polyline fill="none" stroke="black" points="185.817,-66.5 185.817,-88.5 "/>
<text text-anchor="middle" x="205.869" y="-73.3" font-family="Times,serif" font-size="14.00">next</text>
</g>
<!-- htable&#45;&gt;node0 -->
<g id="edge1" class="edge"><title>htable:h1&#45;&gt;node0</title>
<path fill="none" stroke="black" d="M101.941,-77.5C110.301,-77.5 119.111,-78.1118 127.694,-79.0469"/>
<polygon fill="black" stroke="black" points="127.27,-82.5211 137.624,-80.2758 128.13,-75.5741 127.27,-82.5211"/>
</g>
<!-- node0&#45;&gt;htable -->
<g id="edge3" class="edge"><title>node0:pprev:s&#45;&gt;htable:h1:c</title>
<path fill="none" stroke="gray" d="M161.931,-65.5C161.931,-59.7228 137.848,-61.9329 112.122,-65.9421"/>
<polygon fill="gray" stroke="gray" points="111.536,-62.4914 102.229,-67.5539 112.661,-69.4004 111.536,-62.4914"/>
</g>
<!-- node1 -->
<g id="node3" class="node"><title>node1</title>
<polygon fill="none" stroke="black" points="261.921,-66.5 261.921,-110.5 349.9,-110.5 349.9,-66.5 261.921,-66.5"/>
<text text-anchor="middle" x="305.911" y="-95.3" font-family="Times,serif" font-size="14.00">hlist_node</text>
<polyline fill="none" stroke="black" points="261.921,-88.5 349.9,-88.5 "/>
<text text-anchor="middle" x="285.859" y="-73.3" font-family="Times,serif" font-size="14.00">pprev</text>
<polyline fill="none" stroke="black" points="309.797,-66.5 309.797,-88.5 "/>
<text text-anchor="middle" x="329.849" y="-73.3" font-family="Times,serif" font-size="14.00">next</text>
</g>
<!-- node0&#45;&gt;node1 -->
<!-- node0&#45;&gt;node1 -->
<g id="edge4" class="edge"><title>node0:next&#45;&gt;node1:c</title>
<path fill="none" stroke="black" d="M225.921,-77.5C238.5,-77.5 243.161,-82.3215 251.733,-85.7646"/>
<polygon fill="black" stroke="black" points="250.967,-89.1835 261.536,-88.441 252.811,-82.4307 250.967,-89.1835"/>
</g>
<!-- node1&#45;&gt;node0 -->
<g id="edge7" class="edge"><title>node1:pprev:s&#45;&gt;node0:next:s</title>
<path fill="none" stroke="gray" d="M285.911,-65.5C285.911,-33.5637 221.352,-30.3202 208.239,-55.7694"/>
<polygon fill="gray" stroke="gray" points="204.833,-54.9622 205.931,-65.5 211.644,-56.5774 204.833,-54.9622"/>
</g>
<!-- node2 -->
<g id="node4" class="node"><title>node2</title>
<polygon fill="none" stroke="black" points="385.9,-66.5 385.9,-110.5 473.88,-110.5 473.88,-66.5 385.9,-66.5"/>
<text text-anchor="middle" x="429.89" y="-95.3" font-family="Times,serif" font-size="14.00">hlist_node</text>
<polyline fill="none" stroke="black" points="385.9,-88.5 473.88,-88.5 "/>
<text text-anchor="middle" x="409.838" y="-73.3" font-family="Times,serif" font-size="14.00">pprev</text>
<polyline fill="none" stroke="black" points="433.776,-66.5 433.776,-88.5 "/>
<text text-anchor="middle" x="453.828" y="-73.3" font-family="Times,serif" font-size="14.00">next</text>
</g>
<!-- node1&#45;&gt;node2 -->
<g id="edge5" class="edge"><title>node1:next&#45;&gt;node2:c</title>
<path fill="none" stroke="black" d="M349.9,-77.5C362.48,-77.5 367.14,-82.3215 375.712,-85.7646"/>
<polygon fill="black" stroke="black" points="374.946,-89.1835 385.515,-88.441 376.79,-82.4307 374.946,-89.1835"/>
</g>
<!-- node1&#45;&gt;node2 -->
<!-- node2&#45;&gt;node1 -->
<g id="edge9" class="edge"><title>node2:pprev:s&#45;&gt;node1:next:s</title>
<path fill="none" stroke="gray" d="M409.89,-65.5C409.89,-33.5637 345.331,-30.3202 332.218,-55.7694"/>
<polygon fill="gray" stroke="gray" points="328.812,-54.9622 329.911,-65.5 335.624,-56.5774 328.812,-54.9622"/>
</g>
<!-- node_null -->
<g id="node5" class="node"><title>node_null</title>
<text text-anchor="middle" x="536.88" y="-73.3" font-family="Times,serif" font-size="14.00">NULL</text>
</g>
<!-- node2&#45;&gt;node_null -->
<g id="edge8" class="edge"><title>node2:next&#45;&gt;node_null:c</title>
<path fill="none" stroke="black" d="M473.88,-77.5C482.129,-77.5 490.996,-77.5 499.372,-77.5"/>
<polygon fill="black" stroke="black" points="499.634,-81.0001 509.634,-77.5 499.634,-74.0001 499.634,-81.0001"/>
</g>
</g>
</svg>
