<?xml version="1.0" encoding="utf-8"?>
<svg width="440pt" height="285pt" viewBox="0.00 0.00 440 285" xmlns="http://www.w3.org/2000/svg">
  <defs>
    <style id="bx-google-fonts">@import url(https://fonts.googleapis.com/css?family=Roboto:100,100italic,300,300italic,400,400italic,500,500italic,700,700italic,900,900italic);</style>
  </defs>
  <title>hashtable</title>
  <g id="node1" class="node" transform="matrix(1.061569, 0, 0, 1.061569, 12, 265.088226)">
    <title>htable</title>
    <polygon stroke="black" points="0 -25.812 0 -183.251 91.191 -183.251 91.191 -25.812 0 -25.812" style="fill: rgb(255, 255, 255);"/>
    <text text-anchor="middle" x="45.595" y="-169.654" font-family="Times,serif" font-size="14.00" style="white-space: pre; font-size: 12.5px;">hlish_head.first</text>
    <polyline fill="none" stroke="black" points="0 -163.572 91.191 -163.572"/>
    <text text-anchor="middle" x="45.595" y="-149.974" font-family="Times,serif" font-size="14.00" style="white-space: pre; font-size: 12.5px;">[1]</text>
    <polyline fill="none" stroke="black" points="0 -143.892 91.191 -143.892"/>
    <text text-anchor="middle" x="45.595" y="-130.295" font-family="Times,serif" font-size="14.00" style="white-space: pre; font-size: 12.5px;">[2]</text>
    <polyline fill="none" stroke="black" points="0 -124.212 91.191 -124.212"/>
    <text text-anchor="middle" x="45.595" y="-85.25" font-family="Times,serif" font-size="14.00" style="white-space: pre; font-size: 12.5px;" transform="matrix(1, 0, 0, 1.000001, -0.000012, -25.364601)">[3]</text>
    <polyline fill="none" stroke="black" points="0 -104.532 91.191 -104.532"/>
    <text text-anchor="middle" x="45.595" y="-90.935" font-family="Times,serif" font-size="14.00" style="white-space: pre; font-size: 12.5px;">[4]</text>
    <polyline fill="none" stroke="black" points="0 -84.852 91.191 -84.852"/>
    <text text-anchor="middle" x="45.595" y="-71.255" font-family="Times,serif" font-size="14.00" style="white-space: pre; font-size: 12.5px;">[5]</text>
    <polyline fill="none" stroke="black" points="0 -65.172 91.191 -65.172"/>
    <text text-anchor="middle" x="45.595" y="-51.575" font-family="Times,serif" font-size="14.00" style="white-space: pre; font-size: 12.5px;">[6]</text>
    <polyline fill="none" stroke="black" points="0 -45.492 91.191 -45.492"/>
    <text text-anchor="middle" x="45.595" y="-31.895" font-family="Times,serif" font-size="14.00" style="white-space: pre; font-size: 12.5px;">[7]</text>
  </g>
  <rect x="138.168" y="100.988" width="93.195" height="79.529" style="fill: rgb(216, 216, 216);"/>
  <g id="node3" class="node" transform="matrix(1.061569, 0, 0, 1.061569, 12, 265.088226)">
    <title>node9</title>
    <polygon stroke="black" points="123.394 -92.008 123.394 -131.368 202.096 -131.368 202.096 -92.008 123.394 -92.008" style="fill: rgb(255, 255, 255);"/>
    <text x="162.745" y="-117.771" style="white-space: pre; font-size: 12.5px;" text-anchor="middle" font-size="14.00" font-family="Times,serif">hlist_node</text>
    <polyline stroke="black" points="123.394 -111.688 202.096 -111.688" fill="none"/>
    <text x="144.808" y="-98.091" style="white-space: pre; font-size: 12.5px;" text-anchor="middle" font-size="14.00" font-family="Times,serif">pprev</text>
    <polyline stroke="black" points="166.221 -92.008 166.221 -111.688" fill="none"/>
    <text x="184.159" y="-98.091" style="white-space: pre; font-size: 12.5px;" text-anchor="middle" font-size="14.00" font-family="Times,serif">next</text>
  </g>
  <g id="edge4" class="edge" transform="matrix(1.061569, 0, 0, 1.061569, 12, 249.871048)">
    <title>htable:h4-&gt;node9</title>
    <path fill="none" stroke="black" d="M 91.002 -81.488 C 98.62 -81.488 106.764 -94.126 114.472 -95.57"/>
    <polygon fill="black" stroke="black" points="113.973 -98.665 123.374 -97.469 115.279 -92.541 113.973 -98.665"/>
  </g>
  <rect x="138.168" y="9.759" width="93.195" height="79.529" style="fill: rgb(216, 216, 216);"/>
  <g id="node4" class="node" transform="matrix(1.061569, 0, 0, 1.061569, 12, 238.499863)">
    <title>node2</title>
    <polygon stroke="black" points="123.394 -151.09 123.394 -190.45 202.096 -190.45 202.096 -151.09 123.394 -151.09" style="fill: rgb(255, 255, 255);"/>
    <text text-anchor="middle" x="162.745" y="-176.853" font-family="Times,serif" font-size="14.00" style="white-space: pre; font-size: 12.5px;">hlist_node</text>
    <polyline fill="none" stroke="black" points="123.394 -170.77 202.096 -170.77"/>
    <text text-anchor="middle" x="144.808" y="-157.173" font-family="Times,serif" font-size="14.00" style="white-space: pre; font-size: 12.5px;">pprev</text>
    <polyline fill="none" stroke="black" points="166.221 -151.09 166.221 -170.77"/>
    <text text-anchor="middle" x="184.159" y="-157.173" font-family="Times,serif" font-size="14.00" style="white-space: pre; font-size: 12.5px;">next</text>
  </g>
  <g id="edge1" class="edge" transform="matrix(1.061569, 0, 0, 1.061569, 12, 265.088226)">
    <title>htable:h1-&gt;node2</title>
    <path fill="none" stroke="black" d="M 91.191 -153.732 C 103.492 -154.96 101.913 -178.722 109.074 -189.723 C 110.279 -191.574 113.785 -192.751 115.303 -193.291"/>
    <polygon fill="black" stroke="black" points="113.643 -196.393 123.077 -195.477 115.13 -190.311 113.643 -196.393"/>
  </g>
  <rect x="139.654" y="191.006" width="93.195" height="79.529" style="fill: rgb(216, 216, 216);"/>
  <g id="node5" class="node" transform="matrix(1.061569, 0, 0, 1.061569, 13.661772, 304.139862)">
    <title>node3</title>
    <polygon stroke="black" points="123.229 -39.531 123.229 -78.891 201.931 -78.891 201.931 -39.531 123.229 -39.531" style="fill: rgb(255, 255, 255);"/>
    <text text-anchor="middle" x="162.58" y="-65.294" font-family="Times,serif" font-size="14.00" style="white-space: pre; font-size: 12.5px;">hlist_node</text>
    <polyline fill="none" stroke="black" points="123.229 -59.211 201.931 -59.211"/>
    <text text-anchor="middle" x="144.643" y="-45.614" font-family="Times,serif" font-size="14.00" style="white-space: pre; font-size: 12.5px;">pprev</text>
    <polyline fill="none" stroke="black" points="166.056 -39.531 166.056 -59.211"/>
    <text text-anchor="middle" x="183.994" y="-45.614" font-family="Times,serif" font-size="14.00" style="white-space: pre; font-size: 12.5px;">next</text>
  </g>
  <title>htable:h6-&gt;node3</title>
  <path fill="none" stroke="black" d="M 108.805 206.35 C 124.27 203.032 134.184 222.732 137.325 227.223"/>
  <polygon fill="black" stroke="black" points="139.598 225.081 143.755 234.242 134.792 229.675 139.598 225.081"/>
  <rect x="256.665" y="100.988" width="93.195" height="79.529" style="fill: rgb(216, 216, 216);"/>
  <g id="node2" class="node" transform="matrix(1.061569, 0, 0, 1.061569, 12, 265.088226)">
    <title>node1</title>
    <polygon stroke="black" points="234.3 -92.008 234.3 -131.368 313.001 -131.368 313.001 -92.008 234.3 -92.008" style="fill: rgb(255, 255, 255);"/>
    <text text-anchor="middle" x="273.65" y="-117.771" font-family="Times,serif" font-size="14.00" style="white-space: pre; font-size: 12.5px;">hlist_node</text>
    <polyline fill="none" stroke="black" points="234.3 -111.688 313.001 -111.688"/>
    <text text-anchor="middle" x="255.713" y="-98.091" font-family="Times,serif" font-size="14.00" style="white-space: pre; font-size: 12.5px;">pprev</text>
    <polyline fill="none" stroke="black" points="277.127 -92.008 277.127 -111.688"/>
    <text text-anchor="middle" x="295.064" y="-98.091" font-family="Times,serif" font-size="14.00" style="white-space: pre; font-size: 12.5px;">next</text>
  </g>
  <g id="edge8" class="edge" transform="matrix(1.061569, 0, 0, 1.061569, 12, 265.088226)">
    <title>node1:pprev:s-&gt;node9:next:s</title>
    <path fill="none" stroke="gray" d="M 255.76 -91.114 C 255.76 -87.457 248.264 -75.921 231.912 -75.629 C 220.218 -75.42 195.476 -81.489 189.872 -85.87"/>
    <polygon fill="gray" stroke="gray" points="188.955 -83.128 183.662 -90.99 192.702 -88.145 188.955 -83.128"/>
  </g>
  <g id="node7" class="node" transform="matrix(1.061569, 0, 0, 1.061569, 12, 265.088226)">
    <title>node_null_4</title>
    <text text-anchor="middle" x="369.357" y="-98.091" font-family="Times,serif" font-size="14.00" style="white-space: pre; font-size: 12.5px;">NULL</text>
  </g>
  <g id="edge9" class="edge" transform="matrix(1.061569, 0, 0, 1.061569, 12, 265.088226)">
    <title>node1:next-&gt;node_null_4:c</title>
    <path fill="none" stroke="black" d="M 313.001 -101.848 C 320.38 -101.848 328.312 -101.848 335.804 -101.848"/>
    <polygon fill="black" stroke="black" points="336.039 -104.979 344.984 -101.848 336.039 -98.717 336.039 -104.979"/>
  </g>
  <g id="edge6" class="edge" transform="matrix(1.061569, 0, 0, 1.061569, 12, 265.088226)">
    <title>node9:pprev:s-&gt;htable:h4:c</title>
    <path fill="none" stroke="gray" d="M 145.835 -91.604 C 142.968 -87.098 139.188 -79.805 124.647 -81.966 C 120.017 -82.654 104.603 -86.063 100.357 -88.539"/>
    <polygon fill="gray" stroke="gray" points="100.075 -85.198 91.448 -89.121 100.639 -91.434 100.075 -85.198"/>
  </g>
  <g id="edge7" class="edge" transform="matrix(1.061569, 0, 0, 1.061569, 12, 265.088226)">
    <title>node9:next-&gt;node1:c</title>
    <path fill="none" stroke="black" d="M 202.096 -101.848 C 213.348 -101.848 217.518 -106.161 225.186 -109.241"/>
    <polygon fill="black" stroke="black" points="224.501 -112.299 233.955 -111.635 226.15 -106.259 224.501 -112.299"/>
  </g>
  <g id="edge2" class="edge" transform="matrix(1.061569, 0, 0, 1.061569, 12, 265.088226)">
    <title>node2:pprev:s-&gt;htable:h1:c</title>
    <path fill="none" stroke="gray" d="M 131.397 -176.493 C 129.436 -165.772 119.187 -158.138 100.455 -149.952"/>
    <polygon fill="gray" stroke="gray" points="101.255 -146.865 91.778 -146.857 99.182 -152.773 101.255 -146.865"/>
  </g>
  <g id="node6" class="node" transform="matrix(1.061569, 0, 0, 1.061569, 15.323545, 238.499863)">
    <title>node_null_1</title>
    <text text-anchor="middle" x="273.65" y="-135.344" font-family="Times,serif" font-size="14.00" style="white-space: pre; font-size: 12.5px;" transform="matrix(1, 0, 0, 1.000001, -0.33017, -22.72327)">NULL</text>
  </g>
  <g id="edge3" class="edge" transform="matrix(1.061569, 0, 0, 1.061569, 15.323545, 238.499863)">
    <title>node2:next-&gt;node_null_1:c</title>
    <path fill="none" stroke="black" d="M 198.84 -161.249 C 214.383 -161.118 214.426 -161.1 239.711 -161.238"/>
    <polygon fill="black" stroke="black" points="239.881 -164.371 248.873 -161.377 239.976 -158.111 239.881 -164.371"/>
  </g>
  <g id="edge11" class="edge" transform="matrix(1.061569, 0, 0, 1.061569, 12, 265.088226)">
    <title>node3:pprev:s-&gt;htable:h6:c</title>
    <path fill="none" stroke="gray" d="M 125.414 -10.218 C 107.702 -19.204 104.968 -46.037 99.324 -46.117"/>
    <polygon fill="gray" stroke="gray" points="98.372 -43.387 92.282 -50.649 101.571 -48.77 98.372 -43.387"/>
  </g>
  <g id="node8" class="node" transform="matrix(1.061569, 0, 0, 1.061569, 14.492658, 299.154541)">
    <title>node_null_6</title>
    <text text-anchor="middle" x="273.403" y="-45.119" font-family="Times,serif" font-size="14.00" style="white-space: pre; font-size: 12.5px;">NULL</text>
  </g>
  <g id="edge12" class="edge" transform="matrix(1.061569, 0, 0, 1.061569, 14.492658, 299.154541)">
    <title>node3:next-&gt;node_null_6:c</title>
    <path fill="none" stroke="black" d="M 201.848 -48.876 C 214.239 -48.876 227.85 -48.876 239.791 -48.876"/>
    <polygon fill="black" stroke="black" points="240.01 -52.007 248.955 -48.876 240.01 -45.745 240.01 -52.007"/>
  </g>
  <text x="203.538" y="26.043" style="font-size: 14.3px; white-space: pre;" transform="matrix(0.830887, 0, 0, 0.830886, 3.080749, 2.505498)">obj2</text>
  <text x="204.854" y="134.504" style="font-size: 14.3px; white-space: pre;" transform="matrix(0.830886, 0, 0, 0.830885, 3.080843, 2.505597)">obj9</text>
  <text x="347.466" y="135.317" style="font-size: 14.3px; white-space: pre;" transform="matrix(0.830887, 0, 0, 0.830886, 3.080512, 2.505497)">obj1</text>
  <text x="235.533" y="12.113" style="font-size: 16px; white-space: pre;" transform="matrix(0.743263, 0, 0, 0.743263, -0.284436, 195.766983)">obj3</text>
</svg>