<?xml version="1.0" encoding="UTF-8" standalone="no"?>
<!DOCTYPE svg PUBLIC "-//W3C//DTD SVG 1.1//EN"
 "http://www.w3.org/Graphics/SVG/1.1/DTD/svg11.dtd">
<!-- Generated by graphviz version 2.38.0 (20140413.2041)
 -->
<!-- Title: list Pages: 1 -->
<svg width="337pt" height="167pt"
 viewBox="0.00 0.00 337.28 166.82" xmlns="http://www.w3.org/2000/svg" xmlns:xlink="http://www.w3.org/1999/xlink">
<g id="graph0" class="graph" transform="scale(1 1) rotate(0) translate(4 162.821)">
<title>list</title>
<polygon fill="none" stroke="none" points="-4,4 -4,-162.821 333.275,-162.821 333.275,4 -4,4"/>
<!-- node0 -->
<g id="node1" class="node"><title>node0</title>
<polygon fill="none" stroke="black" points="0,-43.5745 0,-87.5745 80.9795,-87.5745 80.9795,-43.5745 0,-43.5745"/>
<text text-anchor="middle" x="40.4897" y="-72.3745" font-family="Times,serif" font-size="14.00">list_head</text>
<polyline fill="none" stroke="black" points="0,-65.5745 80.9795,-65.5745 "/>
<text text-anchor="middle" x="20.438" y="-50.3745" font-family="Times,serif" font-size="14.00">prev</text>
<polyline fill="none" stroke="black" points="40.876,-43.5745 40.876,-65.5745 "/>
<text text-anchor="middle" x="60.9277" y="-50.3745" font-family="Times,serif" font-size="14.00">next</text>
</g>
<!-- node1 -->
<g id="node2" class="node"><title>node1</title>
<polygon fill="none" stroke="black" points="116.979,-43.5745 116.979,-87.5745 197.959,-87.5745 197.959,-43.5745 116.979,-43.5745"/>
<text text-anchor="middle" x="157.469" y="-72.3745" font-family="Times,serif" font-size="14.00">list_head</text>
<polyline fill="none" stroke="black" points="116.979,-65.5745 197.959,-65.5745 "/>
<text text-anchor="middle" x="137.417" y="-50.3745" font-family="Times,serif" font-size="14.00">prev</text>
<polyline fill="none" stroke="black" points="157.855,-43.5745 157.855,-65.5745 "/>
<text text-anchor="middle" x="177.907" y="-50.3745" font-family="Times,serif" font-size="14.00">next</text>
</g>
<!-- node0&#45;&gt;node1 -->
<!-- node0&#45;&gt;node1 -->
<g id="edge3" class="edge"><title>node0:next&#45;&gt;node1:c</title>
<path fill="none" stroke="black" d="M80.9795,-54.5745C93.5588,-54.5745 98.2193,-59.396 106.791,-62.8391"/>
<polygon fill="black" stroke="black" points="106.025,-66.258 116.594,-65.5155 107.869,-59.5052 106.025,-66.258"/>
</g>
<!-- node2 -->
<g id="node3" class="node"><title>node2</title>
<polygon fill="none" stroke="black" points="233.959,-43.5745 233.959,-87.5745 314.938,-87.5745 314.938,-43.5745 233.959,-43.5745"/>
<text text-anchor="middle" x="274.449" y="-72.3745" font-family="Times,serif" font-size="14.00">list_head</text>
<polyline fill="none" stroke="black" points="233.959,-65.5745 314.938,-65.5745 "/>
<text text-anchor="middle" x="254.397" y="-50.3745" font-family="Times,serif" font-size="14.00">prev</text>
<polyline fill="none" stroke="black" points="274.835,-43.5745 274.835,-65.5745 "/>
<text text-anchor="middle" x="294.887" y="-50.3745" font-family="Times,serif" font-size="14.00">next</text>
</g>
<!-- node0&#45;&gt;node2 -->
<g id="edge2" class="edge"><title>node0:prev:s&#45;&gt;node2:s</title>
<path fill="none" stroke="gray" d="M20.4897,-42.5745C20.4897,10.3336 243.696,13.6404 271.597,-32.6542"/>
<polygon fill="gray" stroke="gray" points="268.322,-33.9309 274.449,-42.5745 275.049,-31.9967 268.322,-33.9309"/>
</g>
<!-- node1&#45;&gt;node0 -->
<g id="edge5" class="edge"><title>node1:prev:sw&#45;&gt;node0:s</title>
<path fill="none" stroke="gray" d="M118.469,-43.5745C96.737,-21.8423 52.2326,-10.6121 42.4284,-32.5119"/>
<polygon fill="gray" stroke="gray" points="38.9449,-32.0929 40.4897,-42.5745 45.8185,-33.4173 38.9449,-32.0929"/>
</g>
<!-- node1&#45;&gt;node2 -->
<!-- node1&#45;&gt;node2 -->
<g id="edge6" class="edge"><title>node1:next&#45;&gt;node2:c</title>
<path fill="none" stroke="black" d="M197.959,-54.5745C210.538,-54.5745 215.199,-59.396 223.771,-62.8391"/>
<polygon fill="black" stroke="black" points="223.005,-66.258 233.574,-65.5155 224.849,-59.5052 223.005,-66.258"/>
</g>
<!-- node2&#45;&gt;node0 -->
<g id="edge8" class="edge"><title>node2:next:ne&#45;&gt;node0:n</title>
<path fill="none" stroke="black" d="M315.449,-65.5745C399.706,-149.832 60.6155,-207.846 41.3416,-98.56"/>
<polygon fill="black" stroke="black" points="44.8271,-98.2408 40.4897,-88.5745 37.8525,-98.8358 44.8271,-98.2408"/>
</g>
<!-- node2&#45;&gt;node1 -->
<g id="edge7" class="edge"><title>node2:prev:sw&#45;&gt;node1:s</title>
<path fill="none" stroke="gray" d="M235.449,-43.5745C225.588,-33.7136 181.103,-27.8534 164.103,-34.9703"/>
<polygon fill="gray" stroke="gray" points="161.406,-32.738 157.469,-42.5745 166.681,-37.3397 161.406,-32.738"/>
</g>
</g>
</svg>
