<?xml version="1.0" encoding="UTF-8" standalone="no"?>
<!DOCTYPE svg PUBLIC "-//W3C//DTD SVG 1.1//EN"
 "http://www.w3.org/Graphics/SVG/1.1/DTD/svg11.dtd">
<!-- Generated by graphviz version 2.38.0 (20140413.2041)
 -->
<!-- Title: start_kernel Pages: 1 -->
<svg width="1071pt" height="461pt"
 viewBox="0.00 0.00 1071.48 460.66" xmlns="http://www.w3.org/2000/svg" xmlns:xlink="http://www.w3.org/1999/xlink">
<g id="graph0" class="graph" transform="scale(1 1) rotate(0) translate(4 456.664)">
<title>start_kernel</title>
<polygon fill="white" stroke="none" points="-4,4 -4,-456.664 1067.48,-456.664 1067.48,4 -4,4"/>
<!-- start_kernel -->
<g id="node1" class="node"><title>start_kernel</title>
<text text-anchor="middle" x="330.159" y="-430.464" font-family="Times,serif" font-size="14.00">start_kernel</text>
</g>
<!-- setup_arch -->
<g id="node2" class="node"><title>setup_arch</title>
<text text-anchor="middle" x="75.1587" y="-358.464" font-family="Times,serif" font-size="14.00">setup_arch</text>
</g>
<!-- start_kernel&#45;&gt;setup_arch -->
<g id="edge1" class="edge"><title>start_kernel&#45;&gt;setup_arch</title>
<path fill="none" stroke="black" d="M288.785,-424.378C248.632,-415.088 185.835,-399.824 123.176,-380.841"/>
<polygon fill="black" stroke="black" points="124.116,-377.468 113.53,-377.888 122.067,-384.162 124.116,-377.468"/>
</g>
<!-- trap_init -->
<g id="node3" class="node"><title>trap_init</title>
<text text-anchor="middle" x="163.159" y="-358.464" font-family="Times,serif" font-size="14.00">trap_init</text>
</g>
<!-- start_kernel&#45;&gt;trap_init -->
<g id="edge2" class="edge"><title>start_kernel&#45;&gt;trap_init</title>
<path fill="none" stroke="black" d="M288.949,-416.546C266.222,-407.087 237.28,-395.013 204.403,-381.178"/>
<polygon fill="black" stroke="black" points="205.602,-377.886 195.028,-377.23 202.885,-384.337 205.602,-377.886"/>
</g>
<!-- mm_init -->
<g id="node4" class="node"><title>mm_init</title>
<text text-anchor="middle" x="244.159" y="-358.464" font-family="Times,serif" font-size="14.00">mm_init</text>
</g>
<!-- start_kernel&#45;&gt;mm_init -->
<g id="edge3" class="edge"><title>start_kernel&#45;&gt;mm_init</title>
<path fill="none" stroke="black" d="M308.9,-416.361C298.069,-407.545 284.741,-396.696 272.998,-387.138"/>
<polygon fill="black" stroke="black" points="275.138,-384.367 265.173,-380.768 270.719,-389.796 275.138,-384.367"/>
</g>
<!-- sched_init -->
<g id="node5" class="node"><title>sched_init</title>
<text text-anchor="middle" x="330.159" y="-358.464" font-family="Times,serif" font-size="14.00">sched_init</text>
</g>
<!-- start_kernel&#45;&gt;sched_init -->
<g id="edge4" class="edge"><title>start_kernel&#45;&gt;sched_init</title>
<path fill="none" stroke="black" d="M330.159,-416.361C330.159,-408.647 330.159,-399.377 330.159,-390.776"/>
<polygon fill="black" stroke="black" points="333.659,-390.768 330.159,-380.768 326.659,-390.768 333.659,-390.768"/>
</g>
<!-- vfs_caches_init -->
<g id="node6" class="node"><title>vfs_caches_init</title>
<text text-anchor="middle" x="436.159" y="-358.464" font-family="Times,serif" font-size="14.00">vfs_caches_init</text>
</g>
<!-- start_kernel&#45;&gt;vfs_caches_init -->
<g id="edge5" class="edge"><title>start_kernel&#45;&gt;vfs_caches_init</title>
<path fill="none" stroke="black" d="M356.089,-416.54C369.82,-407.472 386.865,-396.216 401.695,-386.423"/>
<polygon fill="black" stroke="black" points="403.713,-389.285 410.128,-380.854 399.855,-383.444 403.713,-389.285"/>
</g>
<!-- proc_root_init -->
<g id="node7" class="node"><title>proc_root_init</title>
<text text-anchor="middle" x="554.159" y="-358.464" font-family="Times,serif" font-size="14.00">proc_root_init</text>
</g>
<!-- start_kernel&#45;&gt;proc_root_init -->
<g id="edge6" class="edge"><title>start_kernel&#45;&gt;proc_root_init</title>
<path fill="none" stroke="black" d="M371.244,-420.825C406.291,-409.873 457.076,-394.002 496.246,-381.762"/>
<polygon fill="black" stroke="black" points="497.437,-385.057 505.937,-378.733 495.349,-378.375 497.437,-385.057"/>
</g>
<!-- rest_init -->
<g id="node8" class="node"><title>rest_init</title>
<text text-anchor="middle" x="651.159" y="-358.464" font-family="Times,serif" font-size="14.00">rest_init</text>
</g>
<!-- start_kernel&#45;&gt;rest_init -->
<g id="edge7" class="edge"><title>start_kernel&#45;&gt;rest_init</title>
<path fill="none" stroke="black" d="M371.305,-428.731C424.709,-421.715 520.721,-407.006 610.2,-380.612"/>
<polygon fill="black" stroke="black" points="611.384,-383.911 619.953,-377.68 609.368,-377.207 611.384,-383.911"/>
</g>
<!-- kernel_init -->
<g id="node9" class="node"><title>kernel_init</title>
<text text-anchor="middle" x="354.159" y="-293.464" font-family="Times,serif" font-size="14.00">[pid=1]</text>
<text text-anchor="middle" x="354.159" y="-279.464" font-family="Times,serif" font-size="14.00"> kernel_thread(kernel_init, </text>
<text text-anchor="middle" x="354.159" y="-265.464" font-family="Times,serif" font-size="14.00"> &#160;&#160;&#160;&#160;&#160;&#160;&#160;&#160;&#160;&#160;&#160;&#160;&#160;&#160;&#160;&#160;&#160;&#160;&#160;&#160;&#160;&#160;&#160;&#160;&#160;&#160;&#160;NULL, CLONE_FS)</text>
</g>
<!-- rest_init&#45;&gt;kernel_init -->
<g id="edge8" class="edge"><title>rest_init&#45;&gt;kernel_init</title>
<path fill="none" stroke="black" d="M619.911,-347.78C616.977,-346.66 614.028,-345.601 611.159,-344.664 569.224,-330.971 522.479,-319.091 480.475,-309.597"/>
<polygon fill="black" stroke="black" points="480.992,-306.126 470.469,-307.36 479.464,-312.957 480.992,-306.126"/>
</g>
<!-- kthreadd -->
<g id="node10" class="node"><title>kthreadd</title>
<text text-anchor="middle" x="651.159" y="-293.464" font-family="Times,serif" font-size="14.00">[pid=2]</text>
<text text-anchor="middle" x="651.159" y="-279.464" font-family="Times,serif" font-size="14.00"> kernel_thread(kthreadd, </text>
<text text-anchor="middle" x="651.159" y="-265.464" font-family="Times,serif" font-size="14.00"> &#160;&#160;&#160;&#160;&#160;&#160;&#160;&#160;&#160;&#160;&#160;&#160;&#160;&#160;&#160;&#160;&#160;&#160;&#160;&#160;&#160;&#160;&#160;&#160;NULL, CLONE_FS | CLONE_FILES);</text>
</g>
<!-- rest_init&#45;&gt;kthreadd -->
<g id="edge9" class="edge"><title>rest_init&#45;&gt;kthreadd</title>
<path fill="none" stroke="black" d="M651.159,-344.575C651.159,-336.996 651.159,-327.794 651.159,-318.899"/>
<polygon fill="black" stroke="black" points="654.659,-318.714 651.159,-308.714 647.659,-318.714 654.659,-318.714"/>
</g>
<!-- cpu_startup_entry -->
<g id="node11" class="node"><title>cpu_startup_entry</title>
<text text-anchor="middle" x="948.159" y="-279.464" font-family="Times,serif" font-size="14.00">cpu_startup_entry(CPUHP_ONLINE)</text>
</g>
<!-- rest_init&#45;&gt;cpu_startup_entry -->
<g id="edge10" class="edge"><title>rest_init&#45;&gt;cpu_startup_entry</title>
<path fill="none" stroke="black" d="M682.102,-353.642C726.879,-342.033 811.126,-320.191 872.862,-304.185"/>
<polygon fill="black" stroke="black" points="873.766,-307.567 882.567,-301.669 872.009,-300.791 873.766,-307.567"/>
</g>
<!-- kernel_init_freeable -->
<g id="node15" class="node"><title>kernel_init_freeable</title>
<text text-anchor="middle" x="240.159" y="-179.132" font-family="Times,serif" font-size="14.00">kernel_init_freeable</text>
</g>
<!-- kernel_init&#45;&gt;kernel_init_freeable -->
<g id="edge14" class="edge"><title>kernel_init&#45;&gt;kernel_init_freeable</title>
<path fill="none" stroke="black" d="M326.271,-258.609C308.436,-243.226 285.404,-223.359 267.648,-208.043"/>
<polygon fill="black" stroke="black" points="269.756,-205.24 259.898,-201.358 265.184,-210.54 269.756,-205.24"/>
</g>
<!-- try_to_run_init_process -->
<g id="node16" class="node"><title>try_to_run_init_process</title>
<text text-anchor="middle" x="468.159" y="-209.064" font-family="monospace" font-size="12.00">if (!try_to_run_init_process(&quot;/sbin/init&quot;) || </text>
<text text-anchor="middle" x="468.159" y="-194.931" font-family="monospace" font-size="12.00"> &#160;&#160;&#160;&#160;&#160;&#160;&#160;&#160;&#160;&#160;&#160;!try_to_run_init_process(&quot;/etc/init&quot;) || &#160;&#160;</text>
<text text-anchor="middle" x="468.159" y="-180.798" font-family="monospace" font-size="12.00"> &#160;&#160;&#160;&#160;&#160;&#160;&#160;&#160;&#160;&#160;&#160;!try_to_run_init_process(&quot;/bin/init&quot;) || &#160;&#160;</text>
<text text-anchor="middle" x="468.159" y="-166.666" font-family="monospace" font-size="12.00"> &#160;&#160;&#160;&#160;&#160;&#160;&#160;&#160;&#160;&#160;&#160;!try_to_run_init_process(&quot;/bin/sh&quot;)) &#160;&#160;&#160;&#160;&#160;&#160;</text>
<text text-anchor="middle" x="468.159" y="-152.533" font-family="monospace" font-size="12.00"> &#160;&#160;&#160;&#160;&#160;&#160;&#160;&#160;&#160;&#160;&#160;&#160;&#160;&#160;&#160;return 0;</text>
</g>
<!-- kernel_init&#45;&gt;try_to_run_init_process -->
<g id="edge15" class="edge"><title>kernel_init&#45;&gt;try_to_run_init_process</title>
<path fill="none" stroke="black" d="M382.046,-258.609C392.32,-249.748 404.319,-239.398 416.04,-229.288"/>
<polygon fill="black" stroke="black" points="418.395,-231.878 423.682,-222.696 413.823,-226.578 418.395,-231.878"/>
</g>
<!-- cpu_idle_loop -->
<g id="node12" class="node"><title>cpu_idle_loop</title>
<text text-anchor="middle" x="948.159" y="-186.132" font-family="Times,serif" font-size="14.00">[id=0]]</text>
<text text-anchor="middle" x="948.159" y="-172.132" font-family="Times,serif" font-size="14.00"> cpu_idle_loop</text>
</g>
<!-- cpu_startup_entry&#45;&gt;cpu_idle_loop -->
<g id="edge11" class="edge"><title>cpu_startup_entry&#45;&gt;cpu_idle_loop</title>
<path fill="none" stroke="black" d="M948.159,-265.536C948.159,-250.681 948.159,-228.915 948.159,-211.656"/>
<polygon fill="black" stroke="black" points="951.659,-211.594 948.159,-201.594 944.659,-211.594 951.659,-211.594"/>
</g>
<!-- schedule_preempt_disabled -->
<g id="node13" class="node"><title>schedule_preempt_disabled</title>
<text text-anchor="middle" x="948.159" y="-85.8" font-family="Times,serif" font-size="14.00">schedule_preempt_disabled</text>
</g>
<!-- cpu_idle_loop&#45;&gt;schedule_preempt_disabled -->
<g id="edge12" class="edge"><title>cpu_idle_loop&#45;&gt;schedule_preempt_disabled</title>
<path fill="none" stroke="black" d="M948.159,-165.153C948.159,-152.014 948.159,-133.635 948.159,-118.463"/>
<polygon fill="black" stroke="black" points="951.659,-118.102 948.159,-108.102 944.659,-118.102 951.659,-118.102"/>
</g>
<!-- schedule -->
<g id="node14" class="node"><title>schedule</title>
<text text-anchor="middle" x="948.159" y="-13.8" font-family="Times,serif" font-size="14.00">schedule</text>
</g>
<!-- schedule_preempt_disabled&#45;&gt;schedule -->
<g id="edge13" class="edge"><title>schedule_preempt_disabled&#45;&gt;schedule</title>
<path fill="none" stroke="black" d="M948.159,-71.6966C948.159,-63.9827 948.159,-54.7125 948.159,-46.1124"/>
<polygon fill="black" stroke="black" points="951.659,-46.1043 948.159,-36.1043 944.659,-46.1044 951.659,-46.1043"/>
</g>
<!-- do_basic_setup -->
<g id="node17" class="node"><title>do_basic_setup</title>
<text text-anchor="middle" x="51.1587" y="-85.8" font-family="Times,serif" font-size="14.00">do_basic_setup</text>
</g>
<!-- kernel_init_freeable&#45;&gt;do_basic_setup -->
<g id="edge16" class="edge"><title>kernel_init_freeable&#45;&gt;do_basic_setup</title>
<path fill="none" stroke="black" d="M204.609,-165.153C173.723,-150.228 128.848,-128.542 95.5975,-112.475"/>
<polygon fill="black" stroke="black" points="97.0754,-109.302 86.5487,-108.102 94.0297,-115.604 97.0754,-109.302"/>
</g>
<!-- sys_open(&quot;/dev/console&quot;, O_RDWR, 0) -->
<g id="node18" class="node"><title>sys_open(&quot;/dev/console&quot;, O_RDWR, 0)</title>
<text text-anchor="middle" x="240.159" y="-85.8" font-family="Times,serif" font-size="14.00">sys_open(&quot;/dev/console&quot;, O_RDWR, 0)</text>
</g>
<!-- kernel_init_freeable&#45;&gt;sys_open(&quot;/dev/console&quot;, O_RDWR, 0) -->
<g id="edge17" class="edge"><title>kernel_init_freeable&#45;&gt;sys_open(&quot;/dev/console&quot;, O_RDWR, 0)</title>
<path fill="none" stroke="black" d="M240.159,-165.153C240.159,-152.014 240.159,-133.635 240.159,-118.463"/>
<polygon fill="black" stroke="black" points="243.659,-118.102 240.159,-108.102 236.659,-118.102 243.659,-118.102"/>
</g>
<!-- load_default_modules -->
<g id="node19" class="node"><title>load_default_modules</title>
<text text-anchor="middle" x="448.159" y="-85.8" font-family="Times,serif" font-size="14.00">load_default_modules</text>
</g>
<!-- kernel_init_freeable&#45;&gt;load_default_modules -->
<g id="edge18" class="edge"><title>kernel_init_freeable&#45;&gt;load_default_modules</title>
<path fill="none" stroke="black" d="M271.501,-165.203C284.545,-158.31 299.938,-150.476 314.159,-144 339.485,-132.468 368.101,-120.951 392.367,-111.613"/>
<polygon fill="black" stroke="black" points="393.69,-114.855 401.782,-108.015 391.191,-108.316 393.69,-114.855"/>
</g>
<!-- load_default_elevator_module -->
<g id="node20" class="node"><title>load_default_elevator_module</title>
<text text-anchor="middle" x="448.159" y="-13.8" font-family="Times,serif" font-size="14.00">load_default_elevator_module</text>
</g>
<!-- load_default_modules&#45;&gt;load_default_elevator_module -->
<g id="edge19" class="edge"><title>load_default_modules&#45;&gt;load_default_elevator_module</title>
<path fill="none" stroke="black" d="M448.159,-71.6966C448.159,-63.9827 448.159,-54.7125 448.159,-46.1124"/>
<polygon fill="black" stroke="black" points="451.659,-46.1043 448.159,-36.1043 444.659,-46.1044 451.659,-46.1043"/>
</g>
</g>
</svg>
