<?xml version="1.0" encoding="UTF-8" standalone="no"?>
<!DOCTYPE svg PUBLIC "-//W3C//DTD SVG 1.0//EN" "http://www.w3.org/TR/2001/PR-SVG-20010719/DTD/svg10.dtd">
<svg width="16cm" height="7cm" viewBox="26 39 311 132" xmlns="http://www.w3.org/2000/svg" xmlns:xlink="http://www.w3.org/1999/xlink">
  <g>
    <rect style="fill: #ffffff" x="38" y="128" width="258" height="42"/>
    <rect style="fill: none; fill-opacity:0; stroke-width: 1; stroke: #000000" x="38" y="128" width="258" height="42"/>
    <text font-size="9.03111" style="fill: #000000;text-anchor:middle;font-family:sans-serif;font-style:normal;font-weight:normal" x="167" y="151.756">
      <tspan x="167" y="151.756"></tspan>
    </text>
  </g>
  <g>
    <rect style="fill: #ffffff" x="50" y="40" width="50" height="32.2889"/>
    <rect style="fill: none; fill-opacity:0; stroke-width: 1; stroke: #000000" x="50" y="40" width="50" height="32.2889"/>
    <text font-size="9.03111" style="fill: #000000;text-anchor:middle;font-family:sans-serif;font-style:normal;font-weight:normal" x="75" y="58.9">
      <tspan x="75" y="58.9">CPU0</tspan>
    </text>
  </g>
  <g>
    <rect style="fill: #ffffff" x="50" y="70" width="50" height="14.2889"/>
    <rect style="fill: none; fill-opacity:0; stroke-width: 1; stroke: #000000" x="50" y="70" width="50" height="14.2889"/>
    <text font-size="9.03111" style="fill: #000000;text-anchor:middle;font-family:sans-serif;font-style:normal;font-weight:normal" x="75" y="79.9">
      <tspan x="75" y="79.9">cache</tspan>
    </text>
  </g>
  <g>
    <rect style="fill: #ffffff" x="170" y="40" width="50" height="32.2889"/>
    <rect style="fill: none; fill-opacity:0; stroke-width: 1; stroke: #000000" x="170" y="40" width="50" height="32.2889"/>
    <text font-size="9.03111" style="fill: #000000;text-anchor:middle;font-family:sans-serif;font-style:normal;font-weight:normal" x="195" y="58.9">
      <tspan x="195" y="58.9">CPU2</tspan>
    </text>
  </g>
  <g>
    <rect style="fill: #ffffff" x="170" y="70" width="50" height="14.2889"/>
    <rect style="fill: none; fill-opacity:0; stroke-width: 1; stroke: #000000" x="170" y="70" width="50" height="14.2889"/>
    <text font-size="9.03111" style="fill: #000000;text-anchor:middle;font-family:sans-serif;font-style:normal;font-weight:normal" x="195" y="79.9">
      <tspan x="195" y="79.9">cache</tspan>
    </text>
  </g>
  <g>
    <rect style="fill: #ffffff" x="230" y="40" width="50" height="32.2889"/>
    <rect style="fill: none; fill-opacity:0; stroke-width: 1; stroke: #000000" x="230" y="40" width="50" height="32.2889"/>
    <text font-size="9.03111" style="fill: #000000;text-anchor:middle;font-family:sans-serif;font-style:normal;font-weight:normal" x="255" y="58.9">
      <tspan x="255" y="58.9">CPU3</tspan>
    </text>
  </g>
  <g>
    <rect style="fill: #ffffff" x="230" y="70" width="50" height="14.2889"/>
    <rect style="fill: none; fill-opacity:0; stroke-width: 1; stroke: #000000" x="230" y="70" width="50" height="14.2889"/>
    <text font-size="9.03111" style="fill: #000000;text-anchor:middle;font-family:sans-serif;font-style:normal;font-weight:normal" x="255" y="79.9">
      <tspan x="255" y="79.9">cache</tspan>
    </text>
  </g>
  <g>
    <rect style="fill: #ffffff" x="42" y="132.5" width="58.75" height="32.2889"/>
    <rect style="fill: none; fill-opacity:0; stroke-width: 1; stroke: #000000" x="42" y="132.5" width="58.75" height="32.2889"/>
    <text font-size="9.03111" style="fill: #000000;text-anchor:middle;font-family:sans-serif;font-style:normal;font-weight:normal" x="71.375" y="151.4">
      <tspan x="71.375" y="151.4">Memory</tspan>
    </text>
  </g>
  <g>
    <rect style="fill: #ffffff" x="106" y="132.5" width="58.75" height="32.2889"/>
    <rect style="fill: none; fill-opacity:0; stroke-width: 1; stroke: #000000" x="106" y="132.5" width="58.75" height="32.2889"/>
    <text font-size="9.03111" style="fill: #000000;text-anchor:middle;font-family:sans-serif;font-style:normal;font-weight:normal" x="135.375" y="151.4">
      <tspan x="135.375" y="151.4">Memory</tspan>
    </text>
  </g>
  <g>
    <rect style="fill: #ffffff" x="170" y="132.5" width="58.75" height="32.2889"/>
    <rect style="fill: none; fill-opacity:0; stroke-width: 1; stroke: #000000" x="170" y="132.5" width="58.75" height="32.2889"/>
    <text font-size="9.03111" style="fill: #000000;text-anchor:middle;font-family:sans-serif;font-style:normal;font-weight:normal" x="199.375" y="151.4">
      <tspan x="199.375" y="151.4">Memory</tspan>
    </text>
  </g>
  <g>
    <rect style="fill: #ffffff" x="234" y="132.5" width="58.75" height="32.2889"/>
    <rect style="fill: none; fill-opacity:0; stroke-width: 1; stroke: #000000" x="234" y="132.5" width="58.75" height="32.2889"/>
    <text font-size="9.03111" style="fill: #000000;text-anchor:middle;font-family:sans-serif;font-style:normal;font-weight:normal" x="263.375" y="151.4">
      <tspan x="263.375" y="151.4">Memory</tspan>
    </text>
  </g>
  <line style="fill: none; fill-opacity:0; stroke-width: 6; stroke: #000000" x1="30" y1="110" x2="310" y2="110"/>
  <line style="fill: none; fill-opacity:0; stroke-width: 2; stroke: #000000" x1="75" y1="84.2889" x2="74.9426" y2="109.778"/>
  <line style="fill: none; fill-opacity:0; stroke-width: 2; stroke: #000000" x1="135" y1="84.7888" x2="135" y2="110"/>
  <line style="fill: none; fill-opacity:0; stroke-width: 2; stroke: #000000" x1="195" y1="84.2888" x2="195" y2="110"/>
  <line style="fill: none; fill-opacity:0; stroke-width: 2; stroke: #000000" x1="255" y1="84.7661" x2="255" y2="109"/>
  <line style="fill: none; fill-opacity:0; stroke-width: 2; stroke: #000000" x1="166.75" y1="111" x2="167" y2="128"/>
  <text font-size="12.8" style="fill: #000000;text-anchor:start;font-family:sans-serif;font-style:normal;font-weight:normal" x="314.128" y="112.445">
    <tspan x="314.128" y="112.445">Bus</tspan>
  </text>
  <g>
    <rect style="fill: #ffffff" x="110" y="40" width="50" height="32.2889"/>
    <rect style="fill: none; fill-opacity:0; stroke-width: 1; stroke: #000000" x="110" y="40" width="50" height="32.2889"/>
    <text font-size="9.03111" style="fill: #000000;text-anchor:middle;font-family:sans-serif;font-style:normal;font-weight:normal" x="135" y="58.9">
      <tspan x="135" y="58.9">CPU1</tspan>
    </text>
  </g>
  <g>
    <rect style="fill: #ffffff" x="110" y="70" width="50" height="14.2889"/>
    <rect style="fill: none; fill-opacity:0; stroke-width: 1; stroke: #000000" x="110" y="70" width="50" height="14.2889"/>
    <text font-size="9.03111" style="fill: #000000;text-anchor:middle;font-family:sans-serif;font-style:normal;font-weight:normal" x="135" y="79.9">
      <tspan x="135" y="79.9">cache</tspan>
    </text>
  </g>
</svg>
